<svg xmlns="http://www.w3.org/2000/svg" width="71.534" height="90.03" viewBox="0 0 71.534 90.03"><g transform="translate(-52.685 0.5)"><path d="M119.711,10.48a13.553,13.553,0,0,0-14.489-3.008v-.95A6.528,6.528,0,0,0,98.7,0h-39a6.528,6.528,0,0,0-6.521,6.521V46.462a1.3,1.3,0,1,0,2.608,0V6.521a3.917,3.917,0,0,1,3.912-3.912H67.8V6.456A3.047,3.047,0,0,0,70.84,9.5H87.567A3.047,3.047,0,0,0,90.61,6.456V2.608H98.7a3.917,3.917,0,0,1,3.912,3.912V8.836a13.556,13.556,0,0,0-2.2,20.715c-.52.944-1.413,2.165-.766,3.247a1.762,1.762,0,0,0,1.531.865l1.431,0V66.077a8.576,8.576,0,0,0-2.983-1.9l-1.858-.7v-27A18.432,18.432,0,0,0,94.22,25.553a1.3,1.3,0,1,0-2.108,1.536,15.809,15.809,0,0,1,2.927,7.387,4.528,4.528,0,0,0-1.824-.382c-.484,0-1.686.008-2.089.053a12.017,12.017,0,0,1-6.7-1.178,11.686,11.686,0,0,1-3.55-2.77,2.159,2.159,0,0,0-1.632-.742h-.05a2.168,2.168,0,0,0-1.653.821,10.565,10.565,0,0,1-2.793,2.474,11.159,11.159,0,0,1-7.418,1.409c-.338-.051-1.782-.068-2.135-.068a4.529,4.529,0,0,0-1.824.382,15.965,15.965,0,0,1,24.7-11.271,1.3,1.3,0,0,0,1.451-2.167A18.572,18.572,0,0,0,60.634,36.48v27l-1.857.7a8.577,8.577,0,0,0-2.984,1.9V52.548a1.3,1.3,0,0,0-2.608,0V82.509a6.528,6.528,0,0,0,6.521,6.521h39a6.528,6.528,0,0,0,6.521-6.521V33.663c1.362.008,3.136.007,4.931.007a13.565,13.565,0,0,0,9.558-23.191ZM88,6.456a.435.435,0,0,1-.435.435H70.841a.435.435,0,0,1-.435-.435V2.608H88ZM92.8,36.7a1.987,1.987,0,1,1,0,3.9Zm0,7.331v-.822c.81.039,3.441-.694,4.155-1.893l1.763,22.355L87.773,59.733A1.808,1.808,0,0,1,86.6,58.052V55.376A13.51,13.51,0,0,0,92.8,44.033ZM68.219,41.91s0,0,0,0V36.874A13.564,13.564,0,0,0,76.1,34.982,13.116,13.116,0,0,0,79.253,32.3a14.251,14.251,0,0,0,3.993,3,14.556,14.556,0,0,0,6.943,1.53v5.081s0,0,0,0v2.123a10.985,10.985,0,0,1-21.97,0Zm16.239,18.1a6.517,6.517,0,0,1-10.508,0,4.366,4.366,0,0,0,.467-1.959V56.693a13.624,13.624,0,0,0,9.574,0v1.359A4.366,4.366,0,0,0,84.458,60.011ZM65.61,36.7v3.9a1.987,1.987,0,1,1,0-3.9Zm-4.152,4.34a5.415,5.415,0,0,0,4.152,2.168v.822a13.509,13.509,0,0,0,6.2,11.342v2.676a1.808,1.808,0,0,1-1.174,1.681l-10.309,3.94Zm41.156,41.467A3.917,3.917,0,0,1,98.7,86.422H94.579V80.989a1.3,1.3,0,0,0-2.608,0v5.433H66.436V80.989a1.3,1.3,0,0,0-2.608,0v5.433H59.706a3.917,3.917,0,0,1-3.912-3.912V72.222a6.015,6.015,0,0,1,3.9-5.6l11.857-4.446a4.357,4.357,0,0,0,.57-.264,9.132,9.132,0,0,0,14.168,0,4.387,4.387,0,0,0,.57.264l11.858,4.446a6.015,6.015,0,0,1,3.9,5.6Zm7.539-51.447c-2.947,0-7.467-.009-7.583-.009l.439-.812a1.778,1.778,0,0,0-.347-2.141,10.957,10.957,0,1,1,18.448-7.995,10.969,10.969,0,0,1-10.957,10.957ZM73.274,43.456a1.3,1.3,0,0,0,1.3-1.3V39.793a1.3,1.3,0,0,0-2.608,0v2.359A1.3,1.3,0,0,0,73.274,43.456Zm11.859,0a1.3,1.3,0,0,0,1.3-1.3V39.793a1.3,1.3,0,0,0-2.608,0v2.359A1.3,1.3,0,0,0,85.133,43.456Zm30.331-27.643-7.747,7.747-2.874-2.874A1.3,1.3,0,0,0,103,22.53l3.228,3.228a2.125,2.125,0,0,0,2.981,0l8.1-8.1a1.3,1.3,0,1,0-1.844-1.844ZM76.207,50.207a6.282,6.282,0,0,0,2.931.764,6.421,6.421,0,0,0,3.061-.764,1.3,1.3,0,0,0-1.249-2.29,3.576,3.576,0,0,1-1.785.446,3.667,3.667,0,0,1-1.709-.446,1.3,1.3,0,1,0-1.249,2.29Z" fill="#fff" stroke="#631ee1" stroke-width="1"/></g></svg>