<svg id="Layer_1" data-name="Layer 1" xmlns="http://www.w3.org/2000/svg" xmlns:xlink="http://www.w3.org/1999/xlink" viewBox="0 0 617.95 138.9"><defs><style>.cls-1{fill:none;}.cls-2{fill:#fff;}.cls-3{fill:#00ffd2;}.cls-4{clip-path:url(#clip-path);}.cls-5{fill:url(#linear-gradient);}</style><clipPath id="clip-path"><path class="cls-1" d="M275.28,65.33a20.1,20.1,0,0,0-7.36,27.46l18.85,32.65a20.07,20.07,0,0,1,.46-19.23L304.66,76l-1.92-3.33a20.1,20.1,0,0,0-27.46-7.36"/></clipPath><linearGradient id="linear-gradient" x1="-406.14" y1="598.41" x2="-405.14" y2="598.41" gradientTransform="matrix(0, 75.88, 75.88, 0, -45125.37, 30890.29)" gradientUnits="userSpaceOnUse"><stop offset="0" stop-color="#00ffd2"/><stop offset="0.73" stop-color="#27aae1"/><stop offset="1" stop-color="#27aae1"/></linearGradient></defs><title>Crowdi_logo_by_Capitan3</title><path class="cls-2" d="M15.22,122.6C6.08,113.27,1.5,101.92,1.5,88.2s4.58-25.07,13.72-34.4c9.33-9.33,20.86-13.9,34.58-13.9,17.75,0,33.48,9.15,41,23.6L70.48,75.4C66.82,67.89,59,63.14,49.62,63.14,35.53,63.14,25.1,73.57,25.1,88.2a25,25,0,0,0,7,17.93,23.85,23.85,0,0,0,17.56,7c9.51,0,17.38-4.57,21-12.08l20.49,11.71A46.93,46.93,0,0,1,49.8,136.5c-13.72,0-25.25-4.57-34.58-13.9"/><path class="cls-2" d="M124.27,58.2c4.39-11.71,15.37-17.56,27.81-17.56V67a27.48,27.48,0,0,0-19.39,4.39c-5.67,3.84-8.42,10.06-8.42,18.84v43.73h-23.6V42.46h23.6Z"/><path class="cls-2" d="M203.21,136.51c-13.54,0-25.07-4.58-34.4-13.91s-13.9-20.86-13.9-34.4,4.57-24.88,13.9-34.21a49,49,0,0,1,68.79,0A46.52,46.52,0,0,1,251.69,88.2a46.93,46.93,0,0,1-14.09,34.4c-9.33,9.33-20.86,13.91-34.4,13.91m0-23.05A24,24,0,0,0,221,106.32q7.14-7.14,7.13-18.11T221,70.09a25.64,25.64,0,0,0-35.5,0c-4.57,4.76-7,10.79-7,18.11s2.38,13.36,7,18.11a24,24,0,0,0,17.75,7.13"/><path class="cls-2" d="M503.26,5.87h23.6V133.94h-23.6V123.15c-7,9-16.83,13.36-29.64,13.36-12.26,0-22.87-4.57-31.65-13.91-8.6-9.33-13-20.86-13-34.4S433.37,63.32,442,54c8.78-9.33,19.39-14.09,31.65-14.09,12.81,0,22.69,4.39,29.64,13.36ZM478,114q11,0,18.11-7.14,7.14-7.41,7.14-18.66c0-7.5-2.38-13.72-7.14-18.48-4.76-4.94-10.79-7.32-18.11-7.32a24.68,24.68,0,0,0-18.3,7.32c-4.76,4.76-7.14,11-7.14,18.48s2.38,13.72,7.14,18.66A25.26,25.26,0,0,0,478,114"/><path class="cls-2" d="M542,17a14.55,14.55,0,1,1,29.09,0A14.55,14.55,0,0,1,542,17m2.74,25.43h23.6v91.48h-23.6Z"/><path class="cls-2" d="M606.92,117.44c0-2.38-2-4.06-4.72-4.06h-4.92V125.6h3.53V122h1.25l1.75,3.63h3.8l-2.51-4.49a4.2,4.2,0,0,0,1.82-3.67m-5,1.55h-1.09v-2.41h1.09c1,0,1.49.4,1.49,1.22s-.56,1.19-1.49,1.19"/><path class="cls-2" d="M611.91,109.26a14.35,14.35,0,0,0-4.71-3.18,14,14,0,0,0-5.45-1.05h-.06a14.46,14.46,0,1,0,10.23,4.23m-13.84,22.09a11.83,11.83,0,0,1-5.06-3.11,12.49,12.49,0,0,1,0-17.52,12.16,12.16,0,0,1,17.32,0,12.49,12.49,0,0,1,0,17.52,11.72,11.72,0,0,1-8.61,3.62,12.86,12.86,0,0,1-3.65-.51m3.65-25h0a12.72,12.72,0,0,1,3.73.54,13.1,13.1,0,0,0-3.76-.54m-5.34,25.83a14,14,0,0,0,5.33,1h0a13.59,13.59,0,0,1-5.31-1"/><path class="cls-3" d="M349.58,133.64h0A20.1,20.1,0,0,0,377,126.28l43.71-75.71A20.1,20.1,0,0,0,413.4,23.1h0a20.1,20.1,0,0,0-27.46,7.36l-43.71,75.71a20.1,20.1,0,0,0,7.36,27.46"/><path class="cls-3" d="M294.6,133.66h0a20.1,20.1,0,0,0,27.46-7.36L351.66,75a20.1,20.1,0,0,0-34.82-20.1l-29.6,51.27a20.1,20.1,0,0,0,7.36,27.46"/><rect class="cls-1" x="-455.28" y="-470.55" width="1920" height="1080"/><g class="cls-4"><rect class="cls-5" x="245.67" y="59.44" width="75.68" height="69.2" transform="matrix(0.53, -0.85, 0.85, 0.53, 53.24, 284.3)"/></g><rect class="cls-1" x="287.02" y="-470.55" width="1920" height="1080"/></svg>