<svg xmlns="http://www.w3.org/2000/svg" width="91.03" height="91.03" viewBox="0 0 91.03 91.03"><g transform="translate(1 1)"><g transform="translate(0 85.32)"><path d="M0,490.666v1.855a1.855,1.855,0,0,0,1.855,1.855h85.32a1.855,1.855,0,0,0,1.855-1.855v-1.855H0Z" transform="translate(0 -490.666)" fill="#fff" stroke="#631ee1" stroke-width="2"/></g><g transform="translate(3.71 33.386)"><path d="M52.864,192H23.188a1.855,1.855,0,0,0-1.855,1.855v51.934a1.855,1.855,0,0,0,1.855,1.855H52.864a1.855,1.855,0,0,0,1.855-1.855V193.855A1.855,1.855,0,0,0,52.864,192ZM51.01,243.934H25.043V195.71H51.01Z" transform="translate(-21.333 -192)" fill="#fff" stroke="#631ee1" stroke-width="2"/></g><g transform="translate(51.934 11.129)"><path d="M330.2,64H300.521a1.855,1.855,0,0,0-1.855,1.855v74.191a1.855,1.855,0,0,0,1.855,1.855H330.2a1.855,1.855,0,0,0,1.855-1.855V65.855A1.855,1.855,0,0,0,330.2,64Zm-1.855,74.191H302.376V67.71h25.967Z" transform="translate(-298.666 -64)" fill="#fff" stroke="#631ee1" stroke-width="2"/></g><g transform="translate(18.548)"><path d="M158.6,0H108.521a1.855,1.855,0,0,0-1.855,1.855V29.677h3.71V3.71h46.37v3.71h3.71V1.855A1.855,1.855,0,0,0,158.6,0Z" transform="translate(-106.666)" fill="#fff" stroke="#631ee1" stroke-width="2"/></g><g transform="translate(11.129 40.805)"><rect width="3.71" height="33.386" fill="#fff" stroke="#631ee1" stroke-width="2"/></g><g transform="translate(18.548 40.805)"><rect width="3.71" height="33.386" fill="#fff" stroke="#631ee1" stroke-width="2"/></g><g transform="translate(25.967 40.805)"><rect width="3.71" height="33.386" fill="#fff" stroke="#631ee1" stroke-width="2"/></g><g transform="translate(53.789 20.403)"><rect width="20.403" height="3.71" fill="#fff" stroke="#631ee1" stroke-width="2"/></g><g transform="translate(53.789 29.677)"><rect width="20.403" height="3.71" fill="#fff" stroke="#631ee1" stroke-width="2"/></g><g transform="translate(53.789 38.95)"><rect width="20.403" height="3.71" fill="#fff" stroke="#631ee1" stroke-width="2"/></g><g transform="translate(53.789 48.224)"><rect width="20.403" height="3.71" fill="#fff" stroke="#631ee1" stroke-width="2"/></g><g transform="translate(53.789 57.498)"><rect width="20.403" height="3.71" fill="#fff" stroke="#631ee1" stroke-width="2"/></g><g transform="translate(53.789 66.772)"><rect width="20.403" height="3.71" fill="#fff" stroke="#631ee1" stroke-width="2"/></g><g transform="translate(27.822 9.274)"><rect width="3.71" height="5.564" fill="#fff" stroke="#631ee1" stroke-width="2"/></g><g transform="translate(27.822 20.403)"><rect width="3.71" height="5.564" fill="#fff" stroke="#631ee1" stroke-width="2"/></g><g transform="translate(35.241 20.403)"><rect width="3.71" height="5.564" fill="#fff" stroke="#631ee1" stroke-width="2"/></g><g transform="translate(35.241 9.274)"><rect width="3.71" height="5.564" fill="#fff" stroke="#631ee1" stroke-width="2"/></g><g transform="translate(42.66 9.274)"><rect width="3.71" height="5.564" fill="#fff" stroke="#631ee1" stroke-width="2"/></g><g transform="translate(42.66 20.403)"><rect width="3.71" height="5.564" fill="#fff" stroke="#631ee1" stroke-width="2"/></g><g transform="translate(42.66 31.531)"><rect width="3.71" height="5.564" fill="#fff" stroke="#631ee1" stroke-width="2"/></g><g transform="translate(42.66 42.66)"><rect width="3.71" height="5.564" fill="#fff" stroke="#631ee1" stroke-width="2"/></g><g transform="translate(42.66 53.789)"><rect width="3.71" height="5.564" fill="#fff" stroke="#631ee1" stroke-width="2"/></g><g transform="translate(42.66 64.917)"><rect width="3.71" height="5.564" fill="#fff" stroke="#631ee1" stroke-width="2"/></g><g transform="translate(59.353 76.046)"><path d="M352.462,437.333h-9.274a1.855,1.855,0,0,0-1.855,1.855v9.274h3.71v-7.419h5.564v7.419h3.71v-9.274A1.855,1.855,0,0,0,352.462,437.333Z" transform="translate(-341.333 -437.333)" fill="#fff" stroke="#631ee1" stroke-width="2"/></g><g transform="translate(11.129 77.901)"><path d="M80.693,448H65.855A1.855,1.855,0,0,0,64,449.855v7.419h3.71V451.71H78.838v5.564h3.71v-7.419A1.855,1.855,0,0,0,80.693,448Z" transform="translate(-64 -448)" fill="#fff" stroke="#631ee1" stroke-width="2"/></g></g></svg>