<svg xmlns="http://www.w3.org/2000/svg" width="90.515" height="90.515" viewBox="0 0 90.515 90.515"><g transform="translate(-0.5 -0.5)"><circle cx="1" cy="1" r="1" transform="translate(39 24.515)" fill="#fff" stroke="#631ee1" stroke-width="1"/><ellipse cx="1.5" cy="1" rx="1.5" ry="1" transform="translate(50 24.515)" fill="#fff" stroke="#631ee1" stroke-width="1"/><path d="M28.258,23.149a6.116,6.116,0,0,0,10.941,0l.152-.3-2.583-1.292-.152.306a3.228,3.228,0,0,1-5.775,0l-.152-.3-2.583,1.292Z" transform="translate(12.029 9.121)" fill="#fff" stroke="#631ee1" stroke-width="1"/><path d="M55.2,43.872l-2.739-.342a15.965,15.965,0,0,0,7.63-13.553V19.769a18.769,18.769,0,1,0-37.538,0v9.8a4.316,4.316,0,0,1-.728,2.4l-.868,1.3a7.717,7.717,0,0,0,2.961,11.171,2.575,2.575,0,0,1,.23.157A18.755,18.755,0,0,0,11,62.5V65.97a18.758,18.758,0,0,0,8.663,15.791v8.754H52.87A18.791,18.791,0,0,0,71.639,71.746V62.5A18.8,18.8,0,0,0,55.2,43.872ZM51.426,87.627H31.213V84.74h5.775a5.788,5.788,0,0,0,5.775-5.807,5.749,5.749,0,0,0-4.536-5.616A4.339,4.339,0,0,0,34.1,70.3h-.247a4.284,4.284,0,0,0-2.641.921V67.414h5.775a2.89,2.89,0,0,0,2.888-2.888V58.752h11.55ZM34.947,58.752l-3.734,3.734V58.752Zm2.042,2.042v3.734H33.255Zm0-4.929v-.7a5.757,5.757,0,0,1,.445-2.19h8.14l-.963,2.888Zm9.548-5.775H38.945a11.239,11.239,0,0,0,.032-8.885,13.062,13.062,0,0,0,2.343.222,12.921,12.921,0,0,0,3.445-.478l.209.837a5.809,5.809,0,0,0,3.071,3.774ZM31.213,21.213H51.426v7.219a10.107,10.107,0,0,1-20.213,0ZM22.55,37.544a4.789,4.789,0,0,1,.807-2.667l.868-1.3a7.207,7.207,0,0,0,1.213-4v-9.8a15.882,15.882,0,0,1,31.763,0V29.977A13.056,13.056,0,0,1,48.77,42.144l-.335.126a2.828,2.828,0,0,1-.658-1.184l-.3-1.211a13.01,13.01,0,0,0,6.841-11.442V15.438H51.426v2.888H48.538V12.55H45.651v5.775H42.763V12.55H39.876v5.775H36.988V12.55H34.1v5.775H31.213V15.438H28.325V28.432a12.992,12.992,0,0,0,6.5,11.24l.944,1.575a8.514,8.514,0,0,1-.217,9.106A8.651,8.651,0,0,0,34.1,55.167v.7H31.213a2.883,2.883,0,0,0-2.6,1.657L26.756,56.13a3.3,3.3,0,0,1-1.318-2.635,3.269,3.269,0,0,1,.964-2.329l.271-.271a5.64,5.64,0,0,0-1.465-9.032,4.789,4.789,0,0,1-2.658-4.318Zm2.856,9.683a2.766,2.766,0,0,1-.774,1.626l-.271.271a6.14,6.14,0,0,0-1.811,4.37,6.212,6.212,0,0,0,2.472,4.945l3.3,2.478v12.1A7.208,7.208,0,0,1,22.55,65.97V58.752H19.663v5.775H13.888V62.5A15.872,15.872,0,0,1,25.406,47.227ZM13.961,67.414h5.817a10.113,10.113,0,0,0,9.991,8.663h.6l2.465-2.465a1.437,1.437,0,0,1,1.022-.423H34.1a1.446,1.446,0,0,1,1.444,1.444v1.454L37,76.077a2.822,2.822,0,0,1,2.033.829,2.856,2.856,0,0,1,.845,2.059,2.89,2.89,0,0,1-2.888,2.888H29.769A15.9,15.9,0,0,1,13.961,67.414ZM22.55,83.292a18.658,18.658,0,0,0,5.775,1.374v2.961H22.55Zm31.763,4.262V81.737a10.113,10.113,0,0,0,8.663-9.991V67.414h5.775v4.331A15.9,15.9,0,0,1,54.314,87.554ZM68.752,64.527H62.976V58.752H60.089V71.746a7.232,7.232,0,0,1-5.775,7.073V58.752a2.89,2.89,0,0,0-2.888-2.888H47.655l3.208-9.624,3.978.5A15.908,15.908,0,0,1,68.752,62.5Z" transform="translate(4.438 0)" fill="#fff" stroke="#631ee1" stroke-width="1"/><path d="M5.888,17.663H8.775V14.775h2.888V11.888H8.775V9H5.888v2.888H3v2.888H5.888Z" transform="translate(0.888 3.55)" fill="#fff" stroke="#631ee1" stroke-width="1"/><path d="M5.888,9.663H8.775V6.775h2.888V3.888H8.775V1H5.888V3.888H3V6.775H5.888Z" transform="translate(0.888 0)" fill="#fff" stroke="#631ee1" stroke-width="1"/><path d="M60.775,35H57.888v2.888H55v2.888h2.888v2.888h2.888V40.775h2.888V37.888H60.775Z" transform="translate(23.965 15.089)" fill="#fff" stroke="#631ee1" stroke-width="1"/><path d="M60.775,25H57.888v2.888H55v2.888h2.888v2.888h2.888V30.775h2.888V27.888H60.775Z" transform="translate(23.965 10.651)" fill="#fff" stroke="#631ee1" stroke-width="1"/><path d="M15.438,45.876V38.657a7.227,7.227,0,0,0-7.219-7.219,4.337,4.337,0,0,1-4.331-4.331V22.775H8.219a4.337,4.337,0,0,1,4.331,4.331v4.331h2.888V27.107a7.232,7.232,0,0,0-5.775-7.073V17H6.775v2.888H1v7.219a7.227,7.227,0,0,0,7.219,7.219,4.337,4.337,0,0,1,4.331,4.331v4.331H8.219a4.337,4.337,0,0,1-4.331-4.331V34.325H1v4.331A7.232,7.232,0,0,0,6.775,45.73v3.033H9.663V45.876Z" transform="translate(0 7.101)" fill="#fff" stroke="#631ee1" stroke-width="1"/><path d="M67.438,15.438V11.107a7.232,7.232,0,0,0-5.775-7.073V1H58.775V3.888H53v7.219a7.227,7.227,0,0,0,7.219,7.219,4.337,4.337,0,0,1,4.331,4.331v4.331H60.219a4.337,4.337,0,0,1-4.331-4.331V18.325H53v4.331a7.232,7.232,0,0,0,5.775,7.073v3.033h2.888V29.876h5.775V22.657a7.227,7.227,0,0,0-7.219-7.219,4.337,4.337,0,0,1-4.331-4.331V6.775h4.331a4.337,4.337,0,0,1,4.331,4.331v4.331Z" transform="translate(23.077 0)" fill="#fff" stroke="#631ee1" stroke-width="1"/></g></svg>